<svg width="900" height="900" viewBox="0 0 900 900" fill="none" xmlns="http://www.w3.org/2000/svg">
  <rect width="900" height="900" rx="54" fill="#FFF7ED"/>
  <circle cx="214" cy="208" r="142" fill="#D85F45" fill-opacity="0.82"/>
  <rect x="382" y="108" width="302" height="302" rx="42" fill="#1F1C1A"/>
  <path d="M156 563C242 452 372 470 440 577C501 674 632 693 736 557V785H156V563Z" fill="#4E688B"/>
  <path d="M489 183L602 335H376L489 183Z" fill="#F8F4EE"/>
  <circle cx="595" cy="623" r="83" fill="#FFC8BA"/>
  <path d="M156 766C285 643 410 649 515 760C596 846 682 838 736 781V785H156V766Z" fill="#D85F45" fill-opacity="0.65"/>
  <text x="92" y="450" fill="#1F1C1A" font-size="72" font-family="Arial, sans-serif" font-weight="700">PORTAFOLIO</text>
  <text x="96" y="505" fill="#706A64" font-size="30" font-family="Arial, sans-serif">diseño · identidad · ux/ui</text>
</svg>
